<?xml version="1.0" encoding="UTF-8"?>
<svg width="22px" height="22px" viewBox="0 0 22 22" version="1.1" xmlns="http://www.w3.org/2000/svg" xmlns:xlink="http://www.w3.org/1999/xlink">
    <!-- Generator: Sketch 53.2 (72643) - https://sketchapp.com -->
    <title>icons/icon_person</title>
    <desc>Created with Sketch.</desc>
    <defs>
        <path d="M16,16 C18.9466667,16 21.3333333,13.6133333 21.3333333,10.6666667 C21.3333333,7.72 18.9466667,5.33333333 16,5.33333333 C13.0533333,5.33333333 10.6666667,7.72 10.6666667,10.6666667 C10.6666667,13.6133333 13.0533333,16 16,16 Z M16,18.6666667 C12.44,18.6666667 5.33333333,20.4533333 5.33333333,24 L5.33333333,25.3333333 C5.33333333,26.0666667 5.93333333,26.6666667 6.66666667,26.6666667 L25.3333333,26.6666667 C26.0666667,26.6666667 26.6666667,26.0666667 26.6666667,25.3333333 L26.6666667,24 C26.6666667,20.4533333 19.56,18.6666667 16,18.6666667 Z" id="path-1"></path>
    </defs>
    <g id="Symbols" stroke="none" stroke-width="1" fill="none" fill-rule="evenodd">
        <g id="components/menu" transform="translate(-49.000000, -869.000000)">
            <g id="Group-2">
                <g id="icons/icon_person" transform="translate(44.000000, 864.000000)">
                    <g id="round-person-24px-(1)">
                        <polygon id="Path" points="0 0 32 0 32 32 0 32"></polygon>
                        <mask id="mask-2" fill="white">
                            <use xlink:href="#path-1"></use>
                        </mask>
                        <use id="Shape" fill="#000000" fill-rule="nonzero" xlink:href="#path-1"></use>
                        <g id="Colors/Gray01" mask="url(#mask-2)" fill="#606060" fill-rule="nonzero">
                            <rect id="Rectangle" x="0" y="0" width="32" height="32"></rect>
                        </g>
                    </g>
                </g>
            </g>
        </g>
    </g>
</svg>