<?xml version="1.0" encoding="UTF-8"?>
<svg width="24px" height="28px" viewBox="0 0 24 28" version="1.1" xmlns="http://www.w3.org/2000/svg" xmlns:xlink="http://www.w3.org/1999/xlink">
    <!-- Generator: Sketch 53.2 (72643) - https://sketchapp.com -->
    <title>icons/menu/icon_mantenimiento</title>
    <desc>Created with Sketch.</desc>
    <defs>
        <path d="M21.3333333,13.4180791 L10.6666667,13.4180791 C9.93333333,13.4180791 9.33333333,14.0218927 9.33333333,14.759887 C9.33333333,15.4978814 9.93333333,16.1016949 10.6666667,16.1016949 L21.3333333,16.1016949 C22.0666667,16.1016949 22.6666667,15.4978814 22.6666667,14.759887 C22.6666667,14.0218927 22.0666667,13.4180791 21.3333333,13.4180791 Z M25.3333333,4.02542373 L24,4.02542373 L24,2.68361582 C24,1.94562147 23.4,1.34180791 22.6666667,1.34180791 C21.9333333,1.34180791 21.3333333,1.94562147 21.3333333,2.68361582 L21.3333333,4.02542373 L10.6666667,4.02542373 L10.6666667,2.68361582 C10.6666667,1.94562147 10.0666667,1.34180791 9.33333333,1.34180791 C8.6,1.34180791 8,1.94562147 8,2.68361582 L8,4.02542373 L6.66666667,4.02542373 C5.18666667,4.02542373 4,5.23305085 4,6.70903955 L4,25.4943503 C4,26.970339 5.18666667,28.1779661 6.66666667,28.1779661 L25.3333333,28.1779661 C26.8,28.1779661 28,26.970339 28,25.4943503 L28,6.70903955 C28,5.23305085 26.8,4.02542373 25.3333333,4.02542373 Z M24,25.4943503 L8,25.4943503 C7.26666667,25.4943503 6.66666667,24.8905367 6.66666667,24.1525424 L6.66666667,10.7344633 L25.3333333,10.7344633 L25.3333333,24.1525424 C25.3333333,24.8905367 24.7333333,25.4943503 24,25.4943503 Z M17.3333333,18.7853107 L10.6666667,18.7853107 C9.93333333,18.7853107 9.33333333,19.3891243 9.33333333,20.1271186 C9.33333333,20.865113 9.93333333,21.4689266 10.6666667,21.4689266 L17.3333333,21.4689266 C18.0666667,21.4689266 18.6666667,20.865113 18.6666667,20.1271186 C18.6666667,19.3891243 18.0666667,18.7853107 17.3333333,18.7853107 Z" id="path-1"></path>
    </defs>
    <g id="Symbols" stroke="none" stroke-width="1" fill="none" fill-rule="evenodd">
        <g id="components/menu" transform="translate(-47.000000, -193.000000)">
            <g id="Group-2">
                <g id="icons/menu/icon_mantenimiento" transform="translate(43.000000, 192.000000)">
                    <g id="round-event_note-24px" transform="translate(0.000000, 0.000000)">
                        <polygon id="Path" points="0 0 32 0 32 32.2033898 0 32.2033898"></polygon>
                        <mask id="mask-2" fill="white">
                            <use xlink:href="#path-1"></use>
                        </mask>
                        <use id="Shape" fill="#606060" fill-rule="nonzero" xlink:href="#path-1"></use>
                        <g id="Colors/Gray01" mask="url(#mask-2)" fill="#606060" fill-rule="nonzero">
                            <rect id="Rectangle" x="0" y="0" width="32" height="32"></rect>
                        </g>
                    </g>
                </g>
            </g>
        </g>
    </g>
</svg>