<?xml version="1.0" encoding="UTF-8"?>
<svg width="26px" height="27px" viewBox="0 0 26 27" version="1.1" xmlns="http://www.w3.org/2000/svg" xmlns:xlink="http://www.w3.org/1999/xlink">
    <!-- Generator: Sketch 53.2 (72643) - https://sketchapp.com -->
    <title>icons/icon_equipos</title>
    <desc>Created with Sketch.</desc>
    <defs>
        <path d="M14.8666667,4.53333333 C15.3866667,3.68 16.6133333,3.68 17.1333333,4.53333333 L22.08,12.64 C22.6266667,13.52 21.9866667,14.6666667 20.9466667,14.6666667 L11.04,14.6666667 C10,14.6666667 9.36,13.52 9.90666667,12.64 L14.8666667,4.53333333 Z M23.3333333,29.3333333 C20.0196248,29.3333333 17.3333333,26.6470418 17.3333333,23.3333333 C17.3333333,20.0196248 20.0196248,17.3333333 23.3333333,17.3333333 C26.6470418,17.3333333 29.3333333,20.0196248 29.3333333,23.3333333 C29.3333333,26.6470418 26.6470418,29.3333333 23.3333333,29.3333333 Z M5.33333333,28.6666667 C4.6,28.6666667 4,28.0666667 4,27.3333333 L4,19.3333333 C4,18.6 4.6,18 5.33333333,18 L13.3333333,18 C14.0666667,18 14.6666667,18.6 14.6666667,19.3333333 L14.6666667,27.3333333 C14.6666667,28.0666667 14.0666667,28.6666667 13.3333333,28.6666667 L5.33333333,28.6666667 Z" id="path-1"></path>
    </defs>
    <g id="Symbols" stroke="none" stroke-width="1" fill="none" fill-rule="evenodd">
        <g id="components/nav_equipos/buscador" transform="translate(-20.000000, -27.000000)">
            <g id="components/nav_equipos">
                <g id="Group-23" transform="translate(16.000000, 24.000000)">
                    <g id="icons/icon_equipos">
                        <g id="round-category-24px">
                            <polygon id="Path" points="0 0 32 0 32 32 0 32"></polygon>
                            <mask id="mask-2" fill="white">
                                <use xlink:href="#path-1"></use>
                            </mask>
                            <use id="Combined-Shape" fill="#4E4E4E" fill-rule="nonzero" xlink:href="#path-1"></use>
                            <g id="Colors/Gray01" mask="url(#mask-2)" fill="#606060" fill-rule="nonzero">
                                <rect id="Rectangle" x="0" y="0" width="32" height="32"></rect>
                            </g>
                        </g>
                    </g>
                </g>
            </g>
        </g>
    </g>
</svg>