<?xml version="1.0" encoding="UTF-8"?>
<svg width="22px" height="27px" viewBox="0 0 22 27" version="1.1" xmlns="http://www.w3.org/2000/svg" xmlns:xlink="http://www.w3.org/1999/xlink">
    <!-- Generator: Sketch 53.2 (72643) - https://sketchapp.com -->
    <title>round-notifications-24px</title>
    <desc>Created with Sketch.</desc>
    <defs>
        <path d="M16,29.3333333 C17.4666667,29.3333333 18.6666667,28.1333333 18.6666667,26.6666667 L13.3333333,26.6666667 C13.3333333,28.1333333 14.52,29.3333333 16,29.3333333 Z M24,21.3333333 L24,14.6666667 C24,10.5733333 21.8133333,7.14666667 18,6.24 L18,5.33333333 C18,4.22666667 17.1066667,3.33333333 16,3.33333333 C14.8933333,3.33333333 14,4.22666667 14,5.33333333 L14,6.24 C10.1733333,7.14666667 8,10.56 8,14.6666667 L8,21.3333333 L6.28,23.0533333 C5.44,23.8933333 6.02666667,25.3333333 7.21333333,25.3333333 L24.7733333,25.3333333 C25.96,25.3333333 26.56,23.8933333 25.72,23.0533333 L24,21.3333333 Z" id="path-1"></path>
    </defs>
    <g id="Symbols" stroke="none" stroke-width="1" fill="none" fill-rule="evenodd">
        <g id="menu/icons/icon_alert" transform="translate(-5.000000, -5.000000)">
            <g id="Group-5" transform="translate(0.000000, 0.000000)">
                <g id="round-notifications-24px" transform="translate(0.000000, 2.012712)">
                    <g>
                        <polygon id="Path" points="0 0 32 0 32 32 0 32"></polygon>
                        <mask id="mask-2" fill="white">
                            <use xlink:href="#path-1"></use>
                        </mask>
                        <use id="Shape" fill="#606060" fill-rule="nonzero" xlink:href="#path-1"></use>
                        <g id="Colors/Gray01" mask="url(#mask-2)" fill="#606060" fill-rule="nonzero">
                            <rect id="Rectangle" x="0" y="0" width="32" height="32"></rect>
                        </g>
                    </g>
                </g>
            </g>
        </g>
    </g>
</svg>